<svg width="17" height="15" viewBox="0 0 17 15" fill="none" xmlns="http://www.w3.org/2000/svg">
<path d="M17 7.27411C17 7.65381 16.7178 7.9676 16.3518 8.01726L16.25 8.02411L3.066 8.02351L7.82899 12.767C8.12251 13.0593 8.12353 13.5342 7.83127 13.8277C7.56558 14.0945 7.14897 14.1196 6.85489 13.9024L6.77061 13.83L0.720613 7.80598C0.681923 7.76746 0.648317 7.72576 0.619795 7.68173C0.611738 7.66848 0.603539 7.65492 0.595764 7.64109C0.588614 7.62923 0.582151 7.61692 0.576056 7.60448C0.567589 7.58637 0.559317 7.56766 0.551805 7.54857C0.545702 7.53385 0.540607 7.51953 0.535959 7.5051C0.530434 7.48721 0.525064 7.46814 0.520447 7.44878C0.517014 7.43526 0.514294 7.42226 0.511923 7.4092C0.508587 7.38976 0.505749 7.36966 0.503723 7.34931C0.501974 7.33379 0.500921 7.31842 0.50034 7.30303C0.500189 7.29369 0.5 7.28392 0.5 7.27411L0.500376 7.24506C0.50095 7.23034 0.501955 7.21563 0.503393 7.20096L0.5 7.27411C0.5 7.22678 0.504383 7.18048 0.512768 7.13558C0.514711 7.12486 0.517029 7.11385 0.519594 7.10289C0.524921 7.08031 0.531078 7.05857 0.538168 7.03725C0.541647 7.02666 0.545702 7.01535 0.550034 7.00412C0.558798 6.98155 0.568325 6.96004 0.578804 6.93908C0.583673 6.92923 0.589125 6.91891 0.594835 6.9087C0.604208 6.89204 0.613863 6.87621 0.624073 6.86078C0.631277 6.84986 0.639254 6.8385 0.647583 6.82731L0.654074 6.81866C0.67428 6.79227 0.696201 6.76725 0.719669 6.74378L0.72057 6.74308L6.77057 0.718085C7.06407 0.425799 7.53894 0.426782 7.83123 0.720281C8.09694 0.987098 8.12029 1.40381 7.90182 1.69697L7.82903 1.78094L3.068 6.52351L16.25 6.52411C16.6642 6.52411 17 6.8599 17 7.27411Z" fill="white"/>
</svg>
