<svg width="238" height="141" viewBox="0 0 238 141" fill="none" xmlns="http://www.w3.org/2000/svg">
<g filter="url(#filter0_d_383_6455)">
<rect x="24" y="54" width="150" height="50" rx="12" fill="#FBFBFB"/>
</g>
<path d="M102.47 77.07C102.199 76.5007 101.807 76.062 101.294 75.754C100.781 75.4367 100.183 75.278 99.502 75.278C98.8207 75.278 98.2047 75.4367 97.654 75.754C97.1127 76.062 96.6833 76.51 96.366 77.098C96.058 77.6767 95.904 78.3487 95.904 79.114C95.904 79.8793 96.058 80.5513 96.366 81.13C96.6833 81.7087 97.1127 82.1567 97.654 82.474C98.2047 82.782 98.8207 82.936 99.502 82.936C100.454 82.936 101.238 82.6513 101.854 82.082C102.47 81.5127 102.829 80.7427 102.932 79.772H99.04V78.736H104.29V79.716C104.215 80.5187 103.963 81.256 103.534 81.928C103.105 82.5907 102.54 83.118 101.84 83.51C101.14 83.8927 100.361 84.084 99.502 84.084C98.5967 84.084 97.7707 83.874 97.024 83.454C96.2773 83.0247 95.6847 82.432 95.246 81.676C94.8167 80.92 94.602 80.066 94.602 79.114C94.602 78.162 94.8167 77.308 95.246 76.552C95.6847 75.7867 96.2773 75.194 97.024 74.774C97.7707 74.3447 98.5967 74.13 99.502 74.13C100.538 74.13 101.453 74.3867 102.246 74.9C103.049 75.4133 103.632 76.1367 103.996 77.07H102.47ZM109.32 84.126C108.602 84.126 107.948 83.9627 107.36 83.636C106.782 83.3093 106.324 82.8473 105.988 82.25C105.662 81.6433 105.498 80.9433 105.498 80.15C105.498 79.366 105.666 78.6753 106.002 78.078C106.348 77.4713 106.814 77.0093 107.402 76.692C107.99 76.3653 108.648 76.202 109.376 76.202C110.104 76.202 110.762 76.3653 111.35 76.692C111.938 77.0093 112.4 77.4667 112.736 78.064C113.082 78.6613 113.254 79.3567 113.254 80.15C113.254 80.9433 113.077 81.6433 112.722 82.25C112.377 82.8473 111.906 83.3093 111.308 83.636C110.711 83.9627 110.048 84.126 109.32 84.126ZM109.32 83.006C109.778 83.006 110.207 82.8987 110.608 82.684C111.01 82.4693 111.332 82.1473 111.574 81.718C111.826 81.2887 111.952 80.766 111.952 80.15C111.952 79.534 111.831 79.0113 111.588 78.582C111.346 78.1527 111.028 77.8353 110.636 77.63C110.244 77.4153 109.82 77.308 109.362 77.308C108.896 77.308 108.466 77.4153 108.074 77.63C107.692 77.8353 107.384 78.1527 107.15 78.582C106.917 79.0113 106.8 79.534 106.8 80.15C106.8 80.7753 106.912 81.3027 107.136 81.732C107.37 82.1613 107.678 82.4833 108.06 82.698C108.443 82.9033 108.863 83.006 109.32 83.006ZM118.276 84.126C117.557 84.126 116.904 83.9627 116.316 83.636C115.737 83.3093 115.28 82.8473 114.944 82.25C114.617 81.6433 114.454 80.9433 114.454 80.15C114.454 79.366 114.622 78.6753 114.958 78.078C115.303 77.4713 115.77 77.0093 116.358 76.692C116.946 76.3653 117.604 76.202 118.332 76.202C119.06 76.202 119.718 76.3653 120.306 76.692C120.894 77.0093 121.356 77.4667 121.692 78.064C122.037 78.6613 122.21 79.3567 122.21 80.15C122.21 80.9433 122.032 81.6433 121.678 82.25C121.332 82.8473 120.861 83.3093 120.264 83.636C119.666 83.9627 119.004 84.126 118.276 84.126ZM118.276 83.006C118.733 83.006 119.162 82.8987 119.564 82.684C119.965 82.4693 120.287 82.1473 120.53 81.718C120.782 81.2887 120.908 80.766 120.908 80.15C120.908 79.534 120.786 79.0113 120.544 78.582C120.301 78.1527 119.984 77.8353 119.592 77.63C119.2 77.4153 118.775 77.308 118.318 77.308C117.851 77.308 117.422 77.4153 117.03 77.63C116.647 77.8353 116.339 78.1527 116.106 78.582C115.872 79.0113 115.756 79.534 115.756 80.15C115.756 80.7753 115.868 81.3027 116.092 81.732C116.325 82.1613 116.633 82.4833 117.016 82.698C117.398 82.9033 117.818 83.006 118.276 83.006ZM127.049 76.202C127.711 76.202 128.29 76.3467 128.785 76.636C129.289 76.9253 129.662 77.2893 129.905 77.728V76.328H131.193V84.168C131.193 84.868 131.043 85.4887 130.745 86.03C130.446 86.5807 130.017 87.01 129.457 87.318C128.906 87.626 128.262 87.78 127.525 87.78C126.517 87.78 125.677 87.542 125.005 87.066C124.333 86.59 123.936 85.9413 123.815 85.12H125.075C125.215 85.5867 125.504 85.96 125.943 86.24C126.381 86.5293 126.909 86.674 127.525 86.674C128.225 86.674 128.794 86.4547 129.233 86.016C129.681 85.5773 129.905 84.9613 129.905 84.168V82.558C129.653 83.006 129.279 83.3793 128.785 83.678C128.29 83.9767 127.711 84.126 127.049 84.126C126.367 84.126 125.747 83.958 125.187 83.622C124.636 83.286 124.202 82.8147 123.885 82.208C123.567 81.6013 123.409 80.9107 123.409 80.136C123.409 79.352 123.567 78.666 123.885 78.078C124.202 77.4807 124.636 77.0187 125.187 76.692C125.747 76.3653 126.367 76.202 127.049 76.202ZM129.905 80.15C129.905 79.5713 129.788 79.0673 129.555 78.638C129.321 78.2087 129.004 77.882 128.603 77.658C128.211 77.4247 127.777 77.308 127.301 77.308C126.825 77.308 126.391 77.42 125.999 77.644C125.607 77.868 125.294 78.1947 125.061 78.624C124.827 79.0533 124.711 79.5573 124.711 80.136C124.711 80.724 124.827 81.2373 125.061 81.676C125.294 82.1053 125.607 82.4367 125.999 82.67C126.391 82.894 126.825 83.006 127.301 83.006C127.777 83.006 128.211 82.894 128.603 82.67C129.004 82.4367 129.321 82.1053 129.555 81.676C129.788 81.2373 129.905 80.7287 129.905 80.15ZM134.62 73.64V84H133.346V73.64H134.62ZM143.791 79.87C143.791 80.1127 143.777 80.3693 143.749 80.64H137.617C137.664 81.396 137.92 81.9887 138.387 82.418C138.863 82.838 139.437 83.048 140.109 83.048C140.66 83.048 141.117 82.922 141.481 82.67C141.854 82.4087 142.116 82.0633 142.265 81.634H143.637C143.432 82.3713 143.021 82.9733 142.405 83.44C141.789 83.8973 141.024 84.126 140.109 84.126C139.381 84.126 138.728 83.9627 138.149 83.636C137.58 83.3093 137.132 82.8473 136.805 82.25C136.478 81.6433 136.315 80.9433 136.315 80.15C136.315 79.3567 136.474 78.6613 136.791 78.064C137.108 77.4667 137.552 77.0093 138.121 76.692C138.7 76.3653 139.362 76.202 140.109 76.202C140.837 76.202 141.481 76.3607 142.041 76.678C142.601 76.9953 143.03 77.434 143.329 77.994C143.637 78.5447 143.791 79.17 143.791 79.87ZM142.475 79.604C142.475 79.1187 142.368 78.7033 142.153 78.358C141.938 78.0033 141.644 77.7373 141.271 77.56C140.907 77.3733 140.501 77.28 140.053 77.28C139.409 77.28 138.858 77.4853 138.401 77.896C137.953 78.3067 137.696 78.876 137.631 79.604H142.475Z" fill="#3E3E3E"/>
<path d="M79.0001 79.2445C79.0001 78.34 78.9253 77.68 78.7632 76.9956H68.2246V81.0778H74.4105C74.2858 82.0923 73.6124 83.62 72.1157 84.6466L72.0948 84.7833L75.4269 87.313L75.6577 87.3356C77.7779 85.4167 79.0001 82.5933 79.0001 79.2445Z" fill="#4285F4"/>
<path d="M68.2245 90C71.2551 90 73.7993 89.0221 75.6576 87.3355L72.1157 84.6466C71.1678 85.2944 69.8957 85.7466 68.2245 85.7466C65.2563 85.7466 62.737 83.8278 61.839 81.1755L61.7073 81.1865L58.2426 83.8143L58.1973 83.9377C60.0431 87.531 63.8345 90 68.2245 90Z" fill="#34A853"/>
<path d="M61.839 81.1757C61.602 80.4912 61.4649 79.7579 61.4649 79.0001C61.4649 78.2423 61.602 77.509 61.8265 76.8246L61.8202 76.6788L58.312 74.0088L58.1973 74.0623C57.4365 75.5534 57 77.2279 57 79.0001C57 80.7723 57.4365 82.4467 58.1973 83.9379L61.839 81.1757Z" fill="#FBBC05"/>
<path d="M68.2245 72.2533C70.3322 72.2533 71.754 73.1455 72.5646 73.8911L75.7324 70.86C73.7869 69.0878 71.2551 68 68.2245 68C63.8345 68 60.0431 70.4689 58.1973 74.0622L61.8265 76.8244C62.737 74.1722 65.2563 72.2533 68.2245 72.2533Z" fill="#EB4335"/>
<defs>
<filter id="filter0_d_383_6455" x="-40" y="0" width="278" height="178" filterUnits="userSpaceOnUse" color-interpolation-filters="sRGB">
<feFlood flood-opacity="0" result="BackgroundImageFix"/>
<feColorMatrix in="SourceAlpha" type="matrix" values="0 0 0 0 0 0 0 0 0 0 0 0 0 0 0 0 0 0 127 0" result="hardAlpha"/>
<feOffset dy="10"/>
<feGaussianBlur stdDeviation="32"/>
<feColorMatrix type="matrix" values="0 0 0 0 0.54902 0 0 0 0 0.533333 0 0 0 0 0.588235 0 0 0 0.16 0"/>
<feBlend mode="normal" in2="BackgroundImageFix" result="effect1_dropShadow_383_6455"/>
<feBlend mode="normal" in="SourceGraphic" in2="effect1_dropShadow_383_6455" result="shape"/>
</filter>
</defs>
</svg>
